<svg version="1.1" id="Layer_1" xmlns="http://www.w3.org/2000/svg" xmlns:xlink="http://www.w3.org/1999/xlink" x="0px" y="0px"
	 width="100%" viewBox="0 0 420 168" enable-background="new 0 0 420 168" xml:space="preserve">
<path fill="none" opacity="1.000000" stroke="#000000" stroke-linecap="round" stroke-linejoin="round" stroke-width="3.000000"
	d="
M163.000000,58.500000 
	C156.246597,54.164776 148.493912,53.934490 141.006226,54.185684 
	C133.281754,54.444817 128.783127,65.764969 133.556778,71.956223 
	C135.339355,74.268143 138.028107,74.439041 141.012390,74.113586 
	C145.190643,73.657913 149.437592,73.966545 153.507645,75.479416 
	C158.217819,77.230225 160.758865,81.218582 160.576355,86.002914 
	C160.475525,88.645340 158.730438,89.339279 156.996307,89.412872 
	C151.921753,89.628242 146.852432,89.767197 141.969299,87.568169 
	C138.307587,85.919189 137.826675,82.296661 136.000000,79.500000 
"/>
<path fill="none" opacity="1.000000" stroke="#000000" stroke-linecap="round" stroke-linejoin="round" stroke-width="3.000000"
	d="
M266.000000,100.000000 
	C260.923798,99.899933 256.592834,102.465675 252.027298,104.077316 
	C248.391953,105.360580 244.768784,106.977570 241.546631,109.071747 
	C234.122787,113.896797 233.324554,125.997154 239.469955,132.528275 
	C248.712723,142.351166 260.441559,148.908493 271.056946,157.048157 
	C272.925140,156.909836 273.760620,155.826920 273.486023,154.002106 
	C271.679749,141.998032 269.571594,130.032394 268.081299,117.989937 
	C266.849884,108.039200 266.343811,97.999107 265.494263,88.000488 
	C265.196625,84.497452 264.833313,81.000000 264.500000,77.500000 
"/>
<path fill="none" opacity="1.000000" stroke="#000000" stroke-linecap="round" stroke-linejoin="round" stroke-width="3.000000"
	d="
M49.500000,52.500000 
	C47.666668,52.666668 45.780376,53.191666 44.010334,52.930077 
	C39.444927,52.255363 36.772778,55.213146 36.210892,58.535664 
	C35.043869,65.436432 33.080700,72.380463 34.059978,79.491737 
	C34.514660,82.793533 34.864235,86.519028 39.498653,87.012657 
	C43.064255,87.392448 46.661785,85.092720 47.955772,80.986061 
	C49.896164,74.827950 50.546246,68.416855 50.969357,61.997978 
	C51.036137,60.984909 51.062405,60.091629 52.000000,59.500000 
"/>
<path fill="none" opacity="1.000000" stroke="#000000" stroke-linecap="round" stroke-linejoin="round" stroke-width="4.000000"
	d="
M373.500000,85.500000 
	C376.348114,80.500000 372.278015,75.545235 373.412079,70.480316 
	C373.953461,68.062309 372.856415,65.694511 371.557251,63.466614 
	C370.353973,61.403160 368.799713,60.209938 366.507751,60.552017 
	C364.133698,60.906349 363.618317,62.558441 362.765900,64.915321 
	C360.294952,71.747002 361.092377,78.268402 362.433075,85.013306 
	C362.856873,87.145348 362.762085,89.476219 361.500000,91.500000 
"/>
<path fill="none" opacity="1.000000" stroke="#000000" stroke-linecap="round" stroke-linejoin="round" stroke-width="3.000000"
	d="
M332.000000,67.000000 
	C328.237762,69.328728 323.646240,70.131836 321.831024,75.442238 
	C319.626740,81.890747 318.642792,88.338516 319.080200,94.994728 
	C319.345947,99.038605 322.054474,99.951363 326.011169,98.022903 
	C331.127014,95.529510 334.714569,91.402451 337.914673,86.938820 
	C338.678619,85.873253 339.611237,85.277908 340.500000,84.500000 
"/>
<path fill="none" opacity="1.000000" stroke="#000000" stroke-linecap="round" stroke-linejoin="round" stroke-width="3.000000"
	d="
M108.500000,35.500000 
	C106.963364,44.500000 108.200562,53.545319 108.716331,62.487522 
	C109.254745,71.822380 109.889946,81.212387 111.349754,90.523560 
	C112.208511,96.001007 114.885986,96.903641 119.458366,95.823723 
	C125.626045,94.367004 131.500000,91.666672 137.500000,89.500000 
"/>
<path fill="none" opacity="1.000000" stroke="#000000" stroke-linecap="round" stroke-linejoin="round" stroke-width="3.000000"
	d="
M260.500000,71.500000 
	C260.984772,67.439430 259.193268,64.223869 256.470551,61.529770 
	C253.611877,58.701134 251.161407,59.646828 249.946777,63.483150 
	C248.695526,67.435158 248.460159,71.430023 248.495651,75.500038 
	C248.549744,81.701675 250.812820,83.334572 256.483673,80.960968 
	C259.487152,79.703819 262.316864,78.036667 264.500000,75.500000 
"/>
<path fill="none" opacity="1.000000" stroke="#000000" stroke-linecap="round" stroke-linejoin="round" stroke-width="3.000000"
	d="
M315.500000,89.500000 
	C315.335358,90.669373 314.598236,90.909782 313.503204,91.029411 
	C299.536346,92.555237 285.657532,94.581642 271.970032,97.875427 
	C270.225281,98.295288 268.764587,99.326447 267.000000,99.500000 
"/>
<path fill="none" opacity="1.000000" stroke="#000000" stroke-linecap="round" stroke-linejoin="round" stroke-width="3.000000"
	d="
M220.500000,71.500000 
	C210.597275,71.602646 205.976288,77.604958 208.443268,87.014877 
	C208.659988,87.841560 208.655884,88.527725 209.488922,89.018784 
	C211.020309,89.921494 222.536102,89.725761 223.439346,88.456825 
	C224.440872,87.049805 225.217804,85.438492 225.040146,83.496330 
	C224.858704,81.512924 225.000000,79.500000 225.000000,77.500000 
"/>
<path fill="none" opacity="1.000000" stroke="#000000" stroke-linecap="round" stroke-linejoin="round" stroke-width="3.000000"
	d="
M391.000000,96.000000 
	C390.093872,97.403732 390.027313,99.437149 387.715179,100.087173 
	C384.766266,99.000160 385.968140,96.209846 385.429352,94.017365 
	C384.327545,89.533829 383.817993,85.085739 384.486481,80.498032 
	C385.150970,75.937675 383.878296,71.474823 383.321655,67.022301 
	C383.037170,64.746620 382.265442,61.548611 378.993347,61.043137 
	C376.098846,60.596001 375.632141,63.623508 374.000000,65.000000 
"/>
<path fill="none" opacity="1.000000" stroke="#000000" stroke-linecap="round" stroke-linejoin="round" stroke-width="3.000000"
	d="
M285.500000,54.500000 
	C285.045502,65.983261 287.114014,77.089951 289.994995,89.437660 
	C297.333557,81.238998 302.171173,72.104454 312.500000,69.500000 
"/>
<path fill="none" opacity="1.000000" stroke="#000000" stroke-linecap="round" stroke-linejoin="round" stroke-width="4.000000"
	d="
M179.000000,73.000000 
	C180.235153,79.107063 178.957382,85.365150 180.378754,91.527962 
	C181.361969,95.791016 181.992615,96.805092 186.496002,95.978256 
	C188.519592,95.606712 190.500000,95.000008 192.500000,94.500008 
"/>
<path fill="none" opacity="1.000000" stroke="#000000" stroke-linecap="round" stroke-linejoin="round" stroke-width="3.000000"
	d="
M77.000000,70.000000 
	C77.938683,75.631058 78.639420,81.229614 78.107521,87.009895 
	C77.748169,90.915054 76.600723,94.311356 74.500000,97.500000 
"/>
<path fill="none" opacity="1.000000" stroke="#000000" stroke-linecap="round" stroke-linejoin="round" stroke-width="4.000000"
	d="
M56.500000,64.000000 
	C57.669437,74.394104 62.312424,82.617233 71.500000,88.000000 
"/>
<path fill="none" opacity="1.000000" stroke="#000000" stroke-linecap="round" stroke-linejoin="round" stroke-width="4.000000"
	d="
M180.500000,47.500000 
	C178.603180,51.197380 179.597321,55.167221 179.571091,59.000488 
	C179.542618,63.160271 178.898148,67.370743 180.000000,71.500000 
"/>
<path fill="none" opacity="1.000000" stroke="#000000" stroke-linecap="round" stroke-linejoin="round" stroke-width="4.000000"
	d="
M224.000000,64.500000 
	C229.268829,72.888840 235.074997,80.845482 242.500000,87.500000 
"/>
<path fill="none" opacity="1.000000" stroke="#000000" stroke-linecap="round" stroke-linejoin="round" stroke-width="3.000000"
	d="
M199.500000,68.000000 
	C188.219681,69.266571 177.383209,72.486107 166.500000,75.500000 
"/>
<path fill="none" opacity="1.000000" stroke="#000000" stroke-linecap="round" stroke-linejoin="round" stroke-width="3.000000"
	d="
M94.500000,64.500000 
	C90.557457,65.609116 86.457184,65.748093 82.447357,66.799179 
	C76.959496,68.237709 73.232773,70.376152 72.937454,76.496979 
	C72.920250,76.853607 72.000000,77.166664 71.500000,77.499992 
"/>
<path fill="none" opacity="1.000000" stroke="#000000" stroke-linecap="round" stroke-linejoin="round" stroke-width="3.000000"
	d="
M77.000000,51.500000 
	C77.111794,56.847179 76.525757,62.237972 78.000000,67.500000 
"/>
<path fill="none" opacity="1.000000" stroke="#000000" stroke-linecap="round" stroke-linejoin="round" stroke-width="3.000000"
	d="
M123.500000,63.500000 
	C114.852455,64.660851 106.166695,63.834812 97.500000,64.000000 
"/>
<path fill="none" opacity="1.000000" stroke="#000000" stroke-linecap="round" stroke-linejoin="round" stroke-width="4.000000"
	d="
M334.000000,66.500000 
	C337.094116,74.106316 339.365662,82.035339 343.872559,89.081512 
	C345.315552,91.337502 347.443665,92.566360 349.000000,94.500000 
"/>
<path fill="none" opacity="1.000000" stroke="#000000" stroke-linecap="round" stroke-linejoin="round" stroke-width="3.000000"
	d="
M344.500000,67.500000 
	C343.564392,69.046211 343.484985,70.734291 343.465881,72.499634 
	C343.432037,75.632355 343.195831,78.765198 340.500000,81.000000 
"/>
<path fill="none" opacity="1.000000" stroke="#000000" stroke-linecap="round" stroke-linejoin="round" stroke-width="6.000000"
	d="
M50.000000,49.500000 
	C49.765179,55.824661 53.285080,59.995354 57.988724,63.515068 
	C58.735886,64.074165 59.333332,64.833336 60.000000,65.500000 
"/>
</svg>